<svg width="30" height="30" viewBox="0 0 30 30" fill="none" xmlns="http://www.w3.org/2000/svg">
<rect width="30" height="30" rx="7" fill="#007AFF"/>
<path d="M8.34768 22C7.4998 22 7 21.4912 7 20.6228V10.386C7 9.50877 7.4998 9 8.34768 9C9.19555 9 9.69536 9.50877 9.69536 10.386V20.6228C9.69536 21.4912 9.19555 22 8.34768 22Z" fill="white"/>
<path d="M14.2896 21.8333C13.4417 21.8333 12.9419 21.3246 12.9419 20.4474V10.5526C12.9419 9.68421 13.4417 9.17544 14.2896 9.17544H17.8596C21.7241 9.17544 24 11.4386 24 15.4561C24 19.4737 21.7241 21.8333 17.8596 21.8333H14.2896ZM15.6373 19.6404H17.5383C19.948 19.6404 21.2511 18.2018 21.2511 15.4649C21.2511 12.8158 19.9123 11.3596 17.5383 11.3596H15.6373V19.6404Z" fill="white"/>
</svg>
